<svg xmlns="http://www.w3.org/2000/svg" aria-hidden="true" style="position:absolute;width:0;height:0;overflow:hidden">
    <defs>
        <symbol id="icon-logo" viewBox="0 0 154 32">
            <path
                d="M154.209 23.896v3.823h-3.207c-3.422-0.108-5.25-1.956-5.25-5.426v-8.731h-2.239v-3.354h2.239v-3.755h4.732v3.715h3.618v3.344h-3.618v8.311c0 1.124 0.225 2.024 1.955 2.024l1.77 0.049z">
            </path>
            <path
                d="M124.651 18.997v-0.254c-0.051-1.125 0.12-2.248 0.504-3.306s0.972-2.030 1.732-2.86c0.76-0.83 1.677-1.502 2.698-1.978s2.124-0.745 3.25-0.792c0.224 0 0.459 0 0.684 0 4.468 0 8.388 2.601 8.388 8.8v1.32h-12.417c0.127 2.855 1.672 4.468 4.273 4.468 2.239 0 3.285-0.978 3.588-2.405h4.469c-0.548 3.725-3.52 5.798-8.223 5.798-5.163-0.039-8.947-3.305-8.947-8.79zM137.255 16.934c-0.167-2.601-1.476-3.852-3.755-3.852s-3.588 1.408-3.911 3.852h7.666z">
            </path>
            <path
                d="M105.332 18.997v-0.254c-0.051-1.123 0.119-2.245 0.502-3.302s0.97-2.028 1.728-2.858c0.758-0.83 1.672-1.502 2.691-1.979s2.12-0.747 3.243-0.798c0.225 0 0.459 0 0.684 0 4.469 0 8.399 2.601 8.399 8.8v1.32h-12.408c0.127 2.855 1.672 4.468 4.273 4.468 2.239 0 3.285-0.978 3.587-2.405h4.469c-0.557 3.725-3.53 5.798-8.233 5.798-5.153-0.039-8.936-3.305-8.936-8.79zM117.935 16.934c-0.167-2.601-1.476-3.852-3.755-3.852-2.278 0-3.549 1.447-3.911 3.843l7.666 0.010z">
            </path>
            <path
                d="M78.22 10.168h5.006l3.060 11.596 3.354-11.596h3.911l3.031 11.596 3.227-11.596h4.586l-5.436 17.228h-4.693l-2.933-10.814-3.139 10.814h-4.752l-5.221-17.228z">
            </path>
            <path
                d="M62.31 21.98h4.468c0.205 1.555 0.978 2.444 3.031 2.444 1.838 0 2.689-0.694 2.689-1.877s-0.978-1.682-3.481-2.034c-4.586-0.694-6.355-2.014-6.355-5.378 0-3.588 3.285-5.368 6.844-5.368 3.823 0 6.707 1.388 7.118 5.348h-4.41c-0.028-0.306-0.117-0.604-0.26-0.875s-0.34-0.512-0.577-0.708c-0.237-0.195-0.511-0.342-0.805-0.431s-0.603-0.119-0.909-0.088h-0.147c-1.545 0-2.444 0.724-2.444 1.78s0.831 1.515 3.354 1.877c4.282 0.645 6.678 1.731 6.678 5.417s-2.708 5.661-7.245 5.661c-4.537 0-7.421-2.043-7.548-5.769z">
            </path>
            <path
                d="M43.323 10.168h4.732v2.728c0.533-1.001 1.343-1.828 2.333-2.383s2.118-0.813 3.25-0.746c3.354 0 5.788 2.044 5.788 6.707v10.96h-4.674v-10.276c0-2.337-0.909-3.451-3.021-3.451-0.446-0.039-0.896 0.011-1.323 0.146s-0.823 0.354-1.166 0.643c-0.343 0.289-0.625 0.643-0.83 1.041s-0.33 0.833-0.367 1.28c-0.025 0.208-0.025 0.418 0 0.626v9.953h-4.723v-17.228z">
            </path>
            <path
                d="M34.191 5.837c-0.017-0.472 0.106-0.938 0.354-1.34s0.61-0.721 1.039-0.917c0.43-0.196 0.908-0.26 1.374-0.185s0.899 0.288 1.244 0.61c0.345 0.322 0.587 0.739 0.695 1.199s0.077 0.941-0.088 1.383c-0.166 0.442-0.459 0.825-0.842 1.101s-0.84 0.431-1.312 0.447h-0.088c-0.293 0.019-0.587-0.021-0.864-0.116s-0.534-0.244-0.754-0.439c-0.22-0.194-0.399-0.43-0.528-0.694s-0.203-0.55-0.221-0.843c-0.008-0.068-0.011-0.137-0.010-0.205zM34.191 10.168h4.781v17.228h-4.762l-0.020-17.228z">
            </path>
            <path d="M16.172 3.852h15.116v4.175h-9.777v6.228h7.744v4.019h-7.753v9.122h-5.329v-23.544z"></path>
            <path
                d="M7.050 11.557c0 1.476 0 3.275-2.034 4.009 2.083 0.714 2.034 2.229 2.034 3.813v5.866c0 1.115 0.45 1.789 1.252 1.955 0.176 0.059 0.362 0.086 0.548 0.078h1.955v3.911h-3.227c-3.442 0-5.338-1.955-5.338-5.583v-6.942c-0.024-0.356-0.182-0.691-0.44-0.937s-0.601-0.386-0.958-0.393h-0.841v-3.432h0.841c0.364-0.005 0.713-0.15 0.973-0.405s0.413-0.6 0.425-0.964v-7.040c0-3.569 1.858-5.495 5.338-5.495h3.256v3.852h-1.955c-0.186 0.001-0.371 0.030-0.548 0.088-0.802 0.205-1.252 0.87-1.252 1.955l-0.029 5.661z">
            </path>
        </symbol>
        <svg aria-hidden="true" style="position: absolute; width: 0; height: 0; overflow: hidden;" version="1.1"
            xmlns="http://www.w3.org/2000/svg" xmlns:xlink="http://www.w3.org/1999/xlink">
            <defs>
                <symbol id="icon-business" viewBox="0 0 32 32">
                    <path fill="#232536" style="fill: var(--color1, #232536)"
                        d="M16.687 9.276l-7.327-1.113c-0.34-0.053-0.687 0.040-0.947 0.26-0.26 0.227-0.413 0.553-0.413 0.893v14.047c0 0.367 0.3 0.667 0.667 0.667h2.167v-3.5c0-0.647 0.52-1.167 1.167-1.167h1.667c0.647 0 1.167 0.52 1.167 1.167v3.5h2.833v-13.6c-0.001-0.574-0.415-1.060-0.981-1.154zM11.667 17.863h-1c-0.276 0-0.5-0.224-0.5-0.5s0.224-0.5 0.5-0.5h1c0.276 0 0.5 0.224 0.5 0.5s-0.224 0.5-0.5 0.5zM11.667 15.863h-1c-0.276 0-0.5-0.224-0.5-0.5s0.224-0.5 0.5-0.5h1c0.276 0 0.5 0.224 0.5 0.5s-0.224 0.5-0.5 0.5zM11.667 13.863h-1c-0.276 0-0.5-0.224-0.5-0.5s0.224-0.5 0.5-0.5h1c0.276 0 0.5 0.224 0.5 0.5s-0.224 0.5-0.5 0.5zM11.667 11.863h-1c-0.276 0-0.5-0.224-0.5-0.5s0.224-0.5 0.5-0.5h1c0.276 0 0.5 0.224 0.5 0.5s-0.224 0.5-0.5 0.5zM15 17.863h-1c-0.276 0-0.5-0.224-0.5-0.5s0.224-0.5 0.5-0.5h1c0.276 0 0.5 0.224 0.5 0.5s-0.224 0.5-0.5 0.5zM15 15.863h-1c-0.276 0-0.5-0.224-0.5-0.5s0.224-0.5 0.5-0.5h1c0.276 0 0.5 0.224 0.5 0.5s-0.224 0.5-0.5 0.5zM15 13.863h-1c-0.276 0-0.5-0.224-0.5-0.5s0.224-0.5 0.5-0.5h1c0.276 0 0.5 0.224 0.5 0.5s-0.224 0.5-0.5 0.5zM15 11.863h-1c-0.276 0-0.5-0.224-0.5-0.5s0.224-0.5 0.5-0.5h1c0.276 0 0.5 0.224 0.5 0.5s-0.224 0.5-0.5 0.5z">
                    </path>
                    <path fill="#ffd050" style="fill: var(--color2, #ffd050)"
                        d="M23.080 15.258l-4.747-0.994v9.766h4.5c0.643 0 1.167-0.523 1.167-1.167v-6.465c0-0.551-0.376-1.020-0.92-1.14zM21.5 22.030h-1c-0.276 0-0.5-0.224-0.5-0.5s0.224-0.5 0.5-0.5h1c0.276 0 0.5 0.224 0.5 0.5s-0.224 0.5-0.5 0.5zM21.5 20.030h-1c-0.276 0-0.5-0.224-0.5-0.5s0.224-0.5 0.5-0.5h1c0.276 0 0.5 0.224 0.5 0.5s-0.224 0.5-0.5 0.5zM21.5 18.030h-1c-0.276 0-0.5-0.224-0.5-0.5s0.224-0.5 0.5-0.5h1c0.276 0 0.5 0.224 0.5 0.5s-0.224 0.5-0.5 0.5z">
                    </path>
                </symbol>
                <symbol id="icon-startup" viewBox="0 0 32 32">
                    <path fill="#ffd050" style="fill: var(--color2, #ffd050)"
                        d="M8.14 8.642l-2.772 0.214c-0.771 0.060-1.458 0.464-1.885 1.109l-3.197 4.836c-0.324 0.489-0.375 1.102-0.138 1.638s0.725 0.91 1.305 1l2.538 0.393c0.594-3.151 2.015-6.295 4.149-9.191z">
                    </path>
                    <path fill="#ffd050" style="fill: var(--color2, #ffd050)"
                        d="M14.168 28.009l0.393 2.538c0.090 0.58 0.464 1.068 1 1.305 0.223 0.099 0.459 0.147 0.695 0.147 0.33 0 0.658-0.096 0.944-0.285l4.836-3.197c0.645-0.427 1.050-1.114 1.109-1.885l0.214-2.772c-2.896 2.134-6.040 3.555-9.191 4.149z">
                    </path>
                    <path fill="#ffd050" style="fill: var(--color2, #ffd050)"
                        d="M13.213 26.249c0.088 0 0.177-0.007 0.265-0.022 1.32-0.221 2.593-0.593 3.807-1.079l-10.433-10.433c-0.487 1.214-0.859 2.486-1.079 3.807-0.087 0.52 0.088 1.051 0.461 1.424l5.821 5.821c0.31 0.31 0.728 0.483 1.159 0.483z">
                    </path>
                    <path fill="#232536" style="fill: var(--color1, #232536)"
                        d="M29.448 14.188c2.553-4.936 2.647-10.152 2.514-12.598-0.046-0.838-0.714-1.506-1.552-1.552-0.398-0.022-0.87-0.037-1.402-0.037-2.735 0-7.064 0.414-11.196 2.552-3.284 1.699-7.59 5.439-10.13 10.354 0.030 0.023 0.059 0.048 0.087 0.076l11.25 11.25c0.028 0.028 0.052 0.057 0.076 0.087 4.915-2.541 8.655-6.847 10.354-10.13zM18.606 6.765c1.827-1.828 4.801-1.828 6.629 0 0.885 0.885 1.373 2.062 1.373 3.315s-0.488 2.429-1.373 3.315c-0.914 0.914-2.114 1.371-3.314 1.371s-2.401-0.457-3.314-1.371c-0.885-0.885-1.373-2.062-1.373-3.315s0.488-2.429 1.373-3.315z">
                    </path>
                    <path fill="#232536" style="fill: var(--color1, #232536)"
                        d="M19.932 12.068c1.097 1.097 2.881 1.097 3.978 0 0.531-0.531 0.824-1.238 0.824-1.989s-0.292-1.457-0.824-1.989c-0.548-0.548-1.269-0.822-1.989-0.822s-1.441 0.274-1.989 0.822c-0.531 0.531-0.824 1.237-0.824 1.989s0.293 1.458 0.824 1.989z">
                    </path>
                    <path fill="#ffd050" style="fill: var(--color2, #ffd050)"
                        d="M0.957 26.371c0.24 0 0.48-0.092 0.663-0.275l3.061-3.061c0.366-0.366 0.366-0.96 0-1.326s-0.96-0.366-1.326 0l-3.061 3.061c-0.366 0.366-0.366 0.96 0 1.326 0.183 0.183 0.423 0.275 0.663 0.275z">
                    </path>
                    <path fill="#ffd050" style="fill: var(--color2, #ffd050)"
                        d="M7.485 24.515c-0.366-0.366-0.96-0.366-1.326 0l-5.885 5.885c-0.366 0.366-0.366 0.96 0 1.326 0.183 0.183 0.423 0.274 0.663 0.274s0.48-0.092 0.663-0.275l5.885-5.885c0.366-0.366 0.366-0.96 0-1.326z">
                    </path>
                    <path fill="#ffd050" style="fill: var(--color2, #ffd050)"
                        d="M8.963 27.319l-3.061 3.061c-0.366 0.366-0.366 0.96 0 1.326 0.183 0.183 0.423 0.275 0.663 0.275s0.48-0.092 0.663-0.275l3.061-3.061c0.366-0.366 0.366-0.96 0-1.326s-0.96-0.366-1.326 0z">
                    </path>
                </symbol>
                <symbol id="icon-economy" viewBox="0 0 31 32">
                    <path fill="#232536" style="fill: var(--color1, #232536)"
                        d="M6.821 20.567h-3.445c-1.242 0-2.253 1.057-2.253 2.356v7.631c0 0.798 0.621 1.447 1.384 1.447h5.184c0.763 0 1.384-0.649 1.384-1.447v-7.631c0-1.299-1.011-2.356-2.253-2.356z">
                    </path>
                    <path fill="#232536" style="fill: var(--color1, #232536)"
                        d="M16.933 15.932h-3.445c-1.242 0-2.253 1.057-2.253 2.356v12.265c0 0.798 0.621 1.447 1.384 1.447h5.184c0.763 0 1.384-0.649 1.384-1.447v-12.265c0-1.299-1.011-2.356-2.253-2.356z">
                    </path>
                    <path fill="#232536" style="fill: var(--color1, #232536)"
                        d="M27.235 10.652h-3.445c-1.243 0-2.253 1.057-2.253 2.356v17.546c0 0.798 0.621 1.447 1.384 1.447h5.184c0.763 0 1.384-0.649 1.384-1.447v-17.546c0-1.299-1.011-2.356-2.253-2.356z">
                    </path>
                    <path fill="#ffd050" style="fill: var(--color2, #ffd050)"
                        d="M24.491 0.891c-0.421-0.623-1.107-0.952-1.834-0.882l-6.507 0.629c-0.727 0.070-1.343 0.526-1.648 1.219s-0.236 1.478 0.186 2.101l0.363 0.537-8.084 5.84c-0.573 0.424-0.954 1.056-1.072 1.779s0.040 1.452 0.445 2.051c0.405 0.599 1.010 0.997 1.702 1.121 0.15 0.027 0.3 0.040 0.449 0.040 0.537 0 1.060-0.172 1.508-0.502l8.089-5.844 0.375 0.554c0.384 0.567 0.987 0.892 1.641 0.892 0.064 0 0.128-0.003 0.193-0.009 0.727-0.070 1.343-0.526 1.648-1.219l2.732-6.206c0.305-0.693 0.236-1.479-0.186-2.101z">
                    </path>
                </symbol>
                <symbol id="icon-technology" viewBox="0 0 32 32">
                    <path fill="#232536" style="fill: var(--color1, #232536)"
                        d="M20.69 9.375c0 1.034 0.841 1.875 1.875 1.875h5.574c-0.101-1.319-0.407-2.581-0.897-3.75h-4.677c-1.034 0-1.875 0.841-1.875 1.875z">
                    </path>
                    <path fill="#ffd050" style="fill: var(--color2, #ffd050)"
                        d="M8.503 32h11.25c0.518 0 0.937-0.419 0.937-0.937v-4.813h1.875v-6.094l-9.374-7.031h-8.438c-0.518 0-0.938 0.419-0.938 0.938 0 3.321 1.361 6.501 3.75 8.795v8.205c0 0.518 0.419 0.937 0.938 0.937z">
                    </path>
                    <path fill="#232536" style="fill: var(--color1, #232536)"
                        d="M16.003 0c-0.518 0-0.938 0.419-0.938 0.938v0.938h-3.923c-0.388-1.089-1.419-1.875-2.64-1.875-1.551 0-2.813 1.262-2.813 2.813s1.262 2.813 2.813 2.813c1.221 0 2.252-0.786 2.64-1.875h3.923v3.75h-9.548c-0.388-1.089-1.419-1.875-2.64-1.875-1.551 0-2.875 1.262-2.875 2.813s1.324 2.813 2.875 2.813c1.221 0 2.252-0.786 2.64-1.875h9.548v2.813l9 6.75c0.236 0.177 0.375 0.455 0.375 0.75v6.563h0.937c1.551 0 2.813-1.262 2.813-2.813v-4.687h2.875c0.346 0 0.664-0.19 0.827-0.495s0.145-0.675-0.047-0.962l-2.841-4.167h-6.439c-2.068 0-3.75-1.682-3.75-3.75s1.682-3.75 3.75-3.75h3.688c-2.169-3.376-5.947-5.625-10.25-5.625v0z">
                    </path>
                </symbol>
                <symbol id="icon-shape" viewBox="0 0 1173 32">
                    <path d="M0 32h1172.87l-1.261-32h-1171.609v32z"></path>
                </symbol>
            </defs>
        </svg>

    </defs>
</svg>

</defs>
</svg>